<svg xmlns="http://www.w3.org/2000/svg" width="512" height="512" viewBox="0 0 512 512">
<!-- Created by Stamoulohta for the 'Be a Douchebag' android application. (http://www.stamoulohta.com/) -->
  <defs>
    <filter id="e" color-interpolation-filters="sRGB">
      <feGaussianBlur stdDeviation="1.142"/>
    </filter>
    <filter id="h" color-interpolation-filters="sRGB">
      <feGaussianBlur stdDeviation="3.306"/>
    </filter>
    <filter id="g" color-interpolation-filters="sRGB">
      <feGaussianBlur stdDeviation="1.422"/>
    </filter>
    <filter id="f" color-interpolation-filters="sRGB">
      <feGaussianBlur stdDeviation=".711"/>
    </filter>
    <filter id="d" color-interpolation-filters="sRGB">
      <feGaussianBlur stdDeviation=".513"/>
    </filter>
    <filter id="c" color-interpolation-filters="sRGB">
      <feGaussianBlur stdDeviation=".27"/>
    </filter>
    <radialGradient id="a" gradientUnits="userSpaceOnUse" cy="126.03" cx="257.3" gradientTransform="matrix(1.2487 1.7836 -1.497 1.048 124.68 -464.96)" r="62.4">
      <stop offset="0" stop-color="#fff"/>
      <stop offset="1"/>
    </radialGradient>
    <radialGradient id="b" gradientUnits="userSpaceOnUse" cy="80.598" cx="130.27" gradientTransform="matrix(1.1932 -.02998 .03099 1.233 181.77 -47.87)" r="35.34">
      <stop offset="0" stop-color="#fff"/>
      <stop offset=".601" stop-color="#f2f2f2"/>
      <stop offset="1" stop-color="gray"/>
    </radialGradient>
    <linearGradient id="eye-white">
      <stop stop-color="lightCyan" stop-opacity=".8"/>
    </linearGradient>
    <linearGradient id="teeth-white">
      <stop stop-color="lightYellow" stop-opacity=".8"/>
    </linearGradient>
  </defs>

  <!--<rect width="512" height="512" fill="#fff" stroke-width="1" stroke="#000"/>-->
  <g transform="scale(2.56)">
    <path d="M335.71 144.15c0 34.123-27.662 61.786-61.786 61.786-34.123 0-61.786-27.662-61.786-61.786 0-34.123 27.662-61.786 61.786-61.786 34.123 0 61.786 27.662 61.786 61.786z" transform="matrix(1.59657 0 0 1.59657 -337.52 -130.316)" stroke="#ccc" fill="url(#a)"/>
    <path d="M342.14 79.998l-.508-.692-.997-.06c-.548-.033-2.648-.137-4.666-.231-2.018-.095-3.71-.212-3.76-.262-.05-.05-.075-.181-.054-.291.032-.167.169-.21.817-.255l.778-.054-1.427-.88-1.427-.88-1.955-.076c-1.075-.042-2.015-.113-2.088-.158-.073-.045-.115-.173-.093-.285.038-.189.155-.202 1.697-.187l1.656.015-.256-.24c-.838-.79-3.099-2.743-3.297-2.849-.161-.086-1.059-.126-2.82-.126-2.06 0-2.61-.03-2.707-.148-.241-.29-.023-.487.576-.521l.569-.032-1.508-1.673c-.83-.92-1.744-1.928-2.032-2.24l-.524-.566-.732-.002c-.817-.002-1.04-.09-.984-.389.031-.166.163-.213.722-.257l.683-.054-1.44-2.05-1.44-2.051-.626-.033c-.452-.023-.644-.08-.692-.204-.1-.263.27-.465.854-.465.285 0 .519-.043.519-.096 0-.15-1.411-5.236-1.47-5.293-.027-.029-.619-.069-1.314-.09-1.32-.04-1.557-.115-1.358-.432.088-.14.297-.194.834-.218.484-.022.717-.076.717-.167 0-.074-.267-1.346-.593-2.828-.327-1.481-.594-2.705-.594-2.72s-.407-.027-.904-.027c-.672 0-.939-.042-1.038-.162-.108-.13-.108-.195 0-.324.101-.123.378-.162 1.144-.162.96 0 1.012-.012 1.06-.243.027-.133.08-1.542.117-3.13l.067-2.886h-.931c-.96 0-1.35-.11-1.35-.378 0-.22.35-.378.836-.378h.418l.301-2.24c.165-1.231.327-2.372.358-2.535.05-.26.024-.297-.213-.297-.324 0-.542-.23-.449-.472.053-.139.224-.176.814-.176.672 0 .756-.024.848-.243.138-.326 1.728-5.854 1.728-6.005 0-.066-.123-.12-.273-.12-.318 0-.457-.255-.265-.486.096-.116.36-.161.956-.162l.823-.001 1.295-2.121c.713-1.167 1.31-2.184 1.33-2.26.025-.104-.187-.148-.809-.172-.724-.027-.847-.06-.88-.234-.062-.32.174-.387 1.348-.39l1.097-.001 1.844-2.1c1.015-1.156 1.844-2.151 1.844-2.213 0-.064-.25-.112-.58-.112-.658 0-.952-.2-.715-.486.098-.117.355-.162.938-.162h.803l1.72-1.466c.946-.807 1.696-1.507 1.666-1.555s-.025-.166.01-.26c.056-.144.273-.172 1.307-.172h1.24l1.905-1.143c1.048-.629 2.002-1.26 2.121-1.402.212-.255.26-.262 2.968-.376 1.885-.08 2.776-.157 2.83-.244.042-.07.286-.491.542-.936.33-.574.535-.82.705-.844.41-.06.388.258-.072 1.091l-.44.797 1.698-.049c.934-.026 1.732-.08 1.774-.117.041-.038.211-.458.377-.933.246-.702.348-.87.546-.897.373-.053.394.21.086 1.064l-.28.777 1.702-.078c.936-.043 1.717-.092 1.735-.11.018-.016-.091-.335-.243-.708-.319-.784-.344-1.054-.105-1.145.249-.096.424.138.781 1.044l.32.809 1.765-.054c.971-.03 2.494-.054 3.383-.054 1.46 0 1.621.019 1.654.19.025.13-.07.236-.292.33l-.33.138 1.806 1.011c.992.556 1.877 1.068 1.966 1.137.124.096.584.096 1.943 0 .98-.07 1.842-.106 1.916-.08.074.027.135.138.135.247 0 .29-.184.367-1.026.427l-.755.054 1.776 1.322 1.777 1.322h2.504l.242.328c.134.18 1.042 1.223 2.019 2.316 1.219 1.365 1.826 1.97 1.936 1.927.089-.034.282-.031.43.006.336.084.374.489.054.572-.118.031-.215.08-.215.109 0 .028.786 1.115 1.748 2.414l1.748 2.362.549-.065c.414-.048.581-.025.682.096.264.319.042.488-.747.567-.414.041-.739.113-.721.158.018.046.588 1.278 1.268 2.737l1.237 2.654.47-.044c.26-.024.54-.017.626.015.228.088.188.42-.072.593l-.227.15.556 2.534c.687 3.134.608 2.892.954 2.932.35.04.45.366.175.567-.182.133-.182.267-.007 2.933.1 1.536.182 2.854.181 2.928-.001.088.166.135.484.135.445 0 .485.022.485.268 0 .305-.12.348-1.158.408-.37.021-.705.072-.746.113-.055.055-.668 4.693-.683 5.174-.001.045.35.07.78.054.769-.027.782-.023.782.241 0 .239-.058.277-.523.344-.288.04-.55.101-.583.134-.06.06-1.533 5.014-1.536 5.17-.001.048.09.059.202.023.17-.054.551.168.551.32 0 .167-.41.378-.736.38-.218 0-.452.037-.519.08-.104.068-2.63 5.009-2.63 5.144 0 .027.133.063.296.082.187.022.31.109.334.237.049.256-.154.387-.599.39-.317.001-.496.18-2.13 2.13-1.392 1.662-1.748 2.147-1.623 2.217.171.095.22.462.073.552-.048.03-.682.106-1.409.169-1.175.102-1.347.143-1.558.372-.17.185-3.085 2.607-4.056 3.37-.022.018.39.022.918.01.915-.022.96-.013.992.215.041.288-.013.303-1.7.47l-1.234.123-2.234 1.31c-1.9 1.117-2.191 1.32-1.95 1.367.31.06.467.5.211.59-.359.127-3.548.384-6.242.503l-2.966.131-.698.575c-.384.316-.786.574-.893.574-.372 0-.341-.323.071-.746l.398-.407-2.188-.065c-1.204-.035-2.201-.05-2.217-.035s.115.22.29.452c.4.528.432.91.078.91-.181 0-.387-.189-.757-.692zm3.212-2.142c.041-.49.101-1 .133-1.133l.059-.243-4.032.001h-4.032l.29.243c.16.133.704.598 1.21 1.032l.919.79 2.136.084c1.175.046 2.385.091 2.689.1l.553.017.075-.89zm6.617-.438c1.023-.698 1.861-1.286 1.861-1.307s-.303-.015-.674.013-2.08.108-3.797.177l-3.122.125-.076.287c-.042.157-.112.683-.155 1.168l-.078.883 2.09-.039 2.089-.038 1.862-1.269zm1.462 1.109l1.598-.109 2.249-1.32c1.237-.725 2.232-1.337 2.212-1.36s-.95.02-2.066.093l-2.029.132-1.97 1.3c-1.083.715-1.969 1.317-1.969 1.338 0 .054.193.047 1.975-.074zm-14.824-.165c-.077-.093-.582-.549-1.121-1.013l-.982-.844-2.075-.04c-1.141-.021-2.075-.014-2.074.015.001.03.33.248.729.485.4.237 1.042.642 1.428.9l.702.468 1.51.083c.832.045 1.627.09 1.767.099.221.014.237-.007.116-.153zm-3.561-2.61c-.003-.045-.552-.785-1.219-1.646l-1.212-1.565-2.505-.03c-1.378-.017-2.505-.01-2.505.015s.798.754 1.772 1.619l1.773 1.572 1.114.035c2.462.078 2.787.078 2.782 0zm6.153 0c-.003-.045-.38-.804-.837-1.689l-.832-1.607-2.963.02c-1.63.012-2.985.042-3.012.069s.506.776 1.182 1.668l1.23 1.62h2.618c1.44 0 2.616-.036 2.614-.081zm5.616-.052l1.133-.029.206-1.701c.113-.936.181-1.726.151-1.756-.052-.052-7.875.167-7.944.222-.018.015.346.789.81 1.72l.842 1.695 1.834-.061c1.01-.034 2.345-.075 2.968-.09zm4.948-.155c1.265-.057 1.56-.101 1.613-.24.036-.094.57-.89 1.189-1.77.618-.88 1.098-1.626 1.066-1.657-.06-.061-5.614.157-6.198.243-.407.06-.392.016-.62 1.819-.233 1.844-.295 1.677.62 1.677.43 0 1.478-.033 2.33-.072zm4.927-.358c.576-.41 4.808-3.7 4.783-3.717-.019-.013-.592.016-1.275.065l-2.418.17-1.177.08-1.22 1.727c-.67.95-1.222 1.765-1.224 1.81-.005.1 2.38-.026 2.532-.135zm2.73-.164c.612-.04 1.254-.112 1.427-.162.173-.05 1.29-.895 2.483-1.88 2.447-2.019 2.415-1.859.344-1.688-.96.08-1.142.127-1.349.347-.131.14-1.173.973-2.316 1.851-1.143.878-2.078 1.621-2.078 1.652s.085.033.19.004c.103-.028.688-.084 1.3-.124zm-35.813-5.4l-2.217-2.216-1.102.03-1.102.032 1.961 2.185 1.962 2.186h2.714l-2.216-2.217zm6.804 2.162c0-.03-.875-.999-1.945-2.154l-1.944-2.1-1.995-.03c-1.097-.018-1.995-.016-1.995.004s.932 1.004 2.07 2.186l2.07 2.149h1.87c1.027 0 1.869-.024 1.869-.054zm5.702-.032c-.02-.048-.515-.99-1.1-2.093l-1.065-2.006-3.199-.045c-1.759-.025-3.21-.039-3.224-.031-.014.008.853.97 1.926 2.138l1.951 2.124h2.373c1.306 0 2.357-.04 2.337-.087zm5.962-.116c.046-.049-.108-2.896-.217-4.028-.006-.066-7.024.01-7.107.076-.016.013.462.952 1.064 2.087l1.093 2.063 2.552-.065c1.404-.036 2.58-.096 2.615-.133zm6.444-.17c.049-.049.336-3.163.343-3.708l.004-.358-3.157.075c-1.736.041-3.162.081-3.168.088-.011.013.254 3.973.27 4.05.013.056 5.65-.09 5.708-.147zm5.067-.21c.061-.061 1.83-4.115 1.808-4.143-.014-.017-.917.022-2.008.086s-2.385.112-2.876.106c-.644-.008-.904.029-.937.13-.026.078-.111 1.01-.19 2.071l-.145 1.93 2.16-.077c1.19-.042 2.173-.09 2.188-.104zm3.535-.178c1.129-.062 2.161-.136 2.295-.164.192-.04.46-.483 1.274-2.111l1.032-2.061-1.06.071c-.581.04-1.826.112-2.764.162-.938.05-1.722.109-1.74.13-.033.036-1.306 2.931-1.644 3.735l-.147.351h.352c.193 0 1.274-.05 2.402-.113zm5.583-.379l1.048-.067.722-1.258c.397-.692.958-1.64 1.247-2.108l.526-.849-.57.063c-.313.035-1.127.096-1.81.134-.682.04-1.306.123-1.386.187-.133.107-2.067 3.87-2.067 4.022 0 .036.279.038.62.005a64.504 64.504 0 0 1 1.67-.128zm3.714-.51c.489-.508 3.172-3.887 3.125-3.934-.027-.028-.566-.015-1.198.028-.97.066-1.183.114-1.366.308-.235.248-2.356 3.757-2.356 3.898 0 .047.352.053.782.013.607-.056.834-.126 1.013-.312zm3.415-1.993c.981-1.172 1.769-2.147 1.75-2.166s-.256-.002-.527.039c-.481.072-.526.114-1.764 1.652l-1.684 2.093-.414.514h.428c.423 0 .444-.021 2.211-2.132zm-36.187-1.403c-.001-.104-.233-1.136-.515-2.293l-.512-2.105-1.94-.026c-1.068-.015-2.006.015-2.085.066-.116.074-.047.458.356 1.969.275 1.032.55 2.035.61 2.227l.112.351h1.988c1.823 0 1.988-.016 1.986-.189zm5.222.106c.028-.046-.065-1.078-.208-2.294-.143-1.215-.26-2.254-.261-2.307-.001-.09-4.955-.003-5.046.087-.03.031.851 3.889 1.009 4.408.052.172.255.19 2.255.19 1.21 0 2.222-.038 2.25-.084zm-15.256-.154c0-.072-.371-1.067-.825-2.213l-.825-2.083h-1.603c-.882 0-1.604.027-1.604.059s.521 1.001 1.157 2.154l1.157 2.097.975.035c.536.02 1.108.046 1.271.058.172.013.297-.032.297-.107zm5.286.048c0-.044-.259-1.028-.573-2.185l-.571-2.105-2.503-.029c-1.626-.019-2.502.01-2.502.08 0 .115 1.457 3.803 1.631 4.129.093.174.306.191 2.312.191 1.214 0 2.207-.036 2.206-.08zm16.682-.05c.077-.077.285-4.633.215-4.702-.05-.05-6.642.156-6.695.21-.024.023.075 1.06.22 2.306.144 1.245.263 2.278.263 2.295.002.071 5.925-.037 5.997-.11zm-25.315-.027c0-.098-2.18-4-2.31-4.136-.096-.1-.433-.13-1.177-.108l-1.044.031 1.439 2.051c1.384 1.973 1.454 2.053 1.86 2.116.545.085 1.232.11 1.232.046zm30.771-.149c.055-.058.645-4.403.638-4.697-.002-.093-4.325 0-4.876.106l-.286.054-.063 1.316c-.035.724-.078 1.795-.097 2.38l-.034 1.065 2.326-.077c1.28-.042 2.356-.108 2.392-.147zm3.226-.077c1.157-.042 2.201-.112 2.32-.156.166-.063.41-.639 1.056-2.483.462-1.321.826-2.415.81-2.43-.018-.016-1.391.051-3.053.149l-3.022.178-.289 2.158c-.358 2.682-.362 2.784-.116 2.713.104-.03 1.136-.088 2.294-.13zm6.745-.356l1.08-.07 1.275-2.52c.701-1.385 1.26-2.532 1.24-2.548-.048-.04-4.125.253-4.83.349l-.586.08-.838 2.373c-.46 1.306-.84 2.415-.843 2.464-.005.081.546.061 3.502-.128zm4.495-.296c.632-.04 1.197-.101 1.254-.138.137-.088 2.944-5.008 2.889-5.063-.057-.058-3.594.197-3.973.286-.266.063-.437.352-1.538 2.593l-1.24 2.523.73-.066a84.64 84.64 0 0 1 1.878-.135zm4.054-.322c.33-.05.404-.164 1.585-2.45.681-1.319 1.272-2.484 1.313-2.59.068-.178.014-.188-.668-.127-1.244.112-1.15.018-2.693 2.717a147.59 147.59 0 0 0-1.433 2.538c-.036.092 1.054.041 1.896-.088zm2.524-.246c.036-.038.656-1.225 1.38-2.637l1.314-2.57-.678.072c-.392.042-.731.14-.804.23-.175.22-2.518 4.844-2.518 4.969 0 .11 1.198.05 1.306-.064zm-53.715-3.711c-.044-.134-.43-1.36-.855-2.725l-.775-2.482-.7-.032c-.528-.024-.734.01-.838.135-.175.211-.394.214-.475.005-.052-.138-.5-.244-.5-.119 0 .053 1.39 5.137 1.457 5.326.034.099.416.135 1.407.135h1.36l-.081-.243zm3.628.12c0-.067-.316-1.26-.702-2.65s-.702-2.552-.702-2.582c0-.03-.706-.043-1.569-.029-1.059.018-1.556.064-1.528.142.022.063.396 1.269.831 2.679l.791 2.563h1.44c1 0 1.438-.037 1.438-.122zm5.33.034c.03-.05-.3-1.276-.735-2.725l-.79-2.636-2.124-.03c-1.168-.016-2.188.008-2.266.054-.133.078.245 1.634 1.182 4.86l.164.566h2.257c1.241 0 2.282-.04 2.312-.09zm5.24-.208c-.005-.104-.211-1.306-.46-2.671l-.452-2.482-2.563-.03c-1.41-.015-2.563.013-2.563.064 0 .132 1.49 5.078 1.567 5.203.039.063.96.105 2.271.105 2.032 0 2.206-.015 2.2-.189zm5.93.016c.022-.02-.075-1.215-.216-2.657l-.258-2.62-2.785-.02c-2.205-.015-2.797.01-2.84.122-.046.12.746 4.846.873 5.206.034.097.68.113 2.615.067 1.413-.034 2.588-.078 2.61-.098zm4.842-.108l1.322-.065v-1.375c0-.756.032-1.97.07-2.697l.072-1.323-3.012.078c-1.657.043-3.034.098-3.061.122-.047.043.423 5.216.484 5.325.035.063 2.214.028 4.125-.065zm5.72-.218c1.04-.058 1.106-.075 1.108-.294 0-.128.096-1.323.211-2.656.116-1.333.191-2.442.169-2.465-.068-.067-4.886.11-5.006.184-.067.04-.141 1.121-.188 2.728l-.077 2.66 1.338-.048c.736-.026 1.836-.075 2.444-.11zm5.678-.255c.942-.054 1.73-.116 1.752-.138.063-.063.397-5.266.342-5.32-.072-.073-5.412.191-5.506.271-.063.055-.513 4.66-.513 5.259 0 .159-.172.162 3.925-.072zm5.62-.33c.886-.059 1.621-.118 1.633-.132.024-.027.561-5.303.543-5.33-.022-.033-4.548.192-4.77.237-.215.043-.232.15-.355 2.179a94.934 94.934 0 0 1-.19 2.7l-.063.566.795-.056c.437-.03 1.52-.104 2.407-.163zm5.515-.39l.768-.066.611-2.649c.336-1.456.592-2.668.569-2.69-.069-.07-4.368.22-4.501.303-.095.06-.614 4.293-.632 5.162-.003.153.85.137 3.185-.06zm3.989-.343l.432-.072.869-2.644c.706-2.148.837-2.649.701-2.67-.092-.014-.872.034-1.732.108l-1.565.134-.548 2.374a363.125 363.125 0 0 1-.626 2.685l-.079.312 1.058-.078c.582-.043 1.253-.11 1.49-.15zm3.06-.337c.102-.055 1.832-4.979 1.85-5.262.002-.058-1.897.107-1.966.171-.043.04-.463 1.254-.934 2.698l-.856 2.625.88-.076c.484-.042.945-.112 1.026-.156zm2.352-.26c.13-.13 1.614-5.119 1.539-5.177-.024-.019-.333-.006-.687.028l-.643.062-.839 2.59c-.461 1.425-.84 2.622-.84 2.661-.004.117 1.337-.033 1.47-.164zm-61.214-5.977l-.553-2.833-.096-.486-.769-.031-.769-.032.09.41.589 2.73c.275 1.276.52 2.38.545 2.454.029.09.277.135.732.135h.688l-.457-2.347zm3.356 1.996c-.033-.192-.206-1.419-.385-2.725-.18-1.306-.348-2.435-.375-2.509-.066-.183-2.537-.194-2.537-.01 0 .114.901 4.813 1.027 5.352.054.233.103.243 1.192.243h1.136l-.058-.35zm4.313.108c-.081-.35-1.027-5.332-1.027-5.41 0-.037-.753-.067-1.673-.067s-1.672.039-1.672.086c0 .047.17 1.313.377 2.813.208 1.5.378 2.749.378 2.774s.827.047 1.837.047h1.837l-.057-.243zm5.287.108c-.027-.074-.294-1.179-.595-2.455s-.595-2.502-.654-2.725l-.109-.405h-4.332l.059.243c.067.276 1.044 5.36 1.044 5.431 0 .025 1.043.046 2.317.046 1.807 0 2.306-.03 2.27-.135zm5.5.013c.07-.07-1.076-5.472-1.184-5.58-.07-.07-4.83-.024-4.902.047-.042.041 1.13 5.164 1.266 5.532.043.119.496.14 2.403.107 1.293-.021 2.38-.069 2.417-.106zm5.837-.117c.042-.042-.06-1.317-.226-2.833l-.302-2.756h-5.816l.064.243c.035.134.32 1.425.633 2.87l.57 2.626 2.5-.036c1.375-.02 2.535-.071 2.577-.114zm6.201-.142c.03-.017-.042-1.286-.161-2.82l-.217-2.789-2.806.041c-1.544.022-2.824.057-2.847.076-.022.02.099 1.305.267 2.857l.308 2.822 2.7-.078c1.486-.042 2.726-.091 2.756-.109zm4.099-.122l1.65-.071-.07-1.737c-.04-.955-.102-2.217-.14-2.805l-.069-1.07-2.536.07c-1.395.038-2.56.094-2.591.125-.057.057.275 4.88.365 5.317.048.227.107.243.895.243.464 0 1.587-.033 2.496-.072zm6.92-.322l.388-.06.07-1.463c.039-.805.07-2.044.07-2.753v-1.29l-2.67.078c-1.47.043-2.685.09-2.7.104-.044.038.203 5.269.257 5.443.04.126.39.139 2.121.076 1.142-.04 2.25-.102 2.464-.135zm4.63-.238l1.349-.07.067-1.08c.038-.593.082-1.831.1-2.751l.03-1.673-.476.021c-.262.012-1.388.053-2.5.093l-2.024.071v1.806c0 .994-.031 2.244-.07 2.78l-.068.971 1.121-.049c.617-.027 1.729-.08 2.47-.119zm4.621-.293c.757-.044 1.238-.118 1.264-.194.023-.067.116-1.07.207-2.227.092-1.158.193-2.34.226-2.63l.06-.524-1.112.068c-.611.038-1.533.096-2.048.13l-.936.063-.058.772c-.032.424-.085 1.66-.118 2.745l-.06 1.974.676-.053c.373-.029 1.227-.085 1.9-.124zm4.253-.274c.907-.065 1.66-.13 1.676-.145.057-.052.562-5.28.515-5.326-.067-.068-3.915.13-3.99.205-.05.05-.492 4.759-.492 5.24 0 .178.165.18 2.291.026zm4.751-.383c.112-.03.189-.156.189-.31 0-.298.293-3.88.373-4.557l.054-.459-.51.002c-.512.002-1.85.168-1.92.238-.02.02-.136 1.031-.257 2.246-.12 1.215-.245 2.395-.277 2.622l-.059.414 1.11-.072c.61-.04 1.193-.095 1.297-.124zm2.583-.239c.074-.07.628-4.494.628-5.019v-.285l-.945.07c-.519.038-.956.079-.97.09-.026.02-.46 4.914-.46 5.183 0 .095.229.117.837.08.46-.027.87-.08.91-.119zm-62.4-7.245v-3.13h-1.693l-.07 2.024a117.72 117.72 0 0 0-.072 3.13v1.106h1.835v-3.13zm3.453 0v-3.13h-2.806v6.26h2.806v-3.13zm3.886 0v-3.13H318.106v6.26h3.237v-3.13zm5.935.005v-3.125l-2.644-.005-2.644-.005v6.26h5.288V46.16zm4.56 3.018h1.052v-6.152h-4.964v3.057c0 1.682.036 3.097.08 3.143s.689.056 1.43.019 1.823-.067 2.402-.067zm5.666-.07l.567-.069V42.883l-1.214.07c-.668.039-1.688.07-2.267.07l-1.052.001v6.152l1.7-.001c.934 0 1.954-.032 2.266-.069zm6.475-.19c.026-.027.013-1.384-.03-3.016-.07-2.604-.101-2.971-.254-3.003-.096-.02-1.255-.02-2.575 0l-2.402.034V49.103l2.606-.07c1.433-.037 2.628-.09 2.655-.116zm4.229-.067c1.627-.06 2.973-.121 2.99-.138.052-.052-.37-5.917-.431-5.978-.032-.032-1.452-.022-3.156.022l-3.098.08.07 2.172c.039 1.194.07 2.572.07 3.062l.001.89h.297c.163-.001 1.629-.05 3.257-.11zm7.535-.28l.675-.059V42.51l-2.132.045c-1.172.024-2.29.07-2.482.1-.336.054-.35.075-.299.456.03.22.103 1.274.164 2.343.062 1.068.141 2.249.177 2.623l.065.68 1.58-.063c.867-.035 1.881-.09 2.252-.123zm5.18-.216l.675-.059v-6.008l-1.268.048c-.697.027-1.717.076-2.266.11l-.999.06v6.036l1.592-.064c.876-.035 1.896-.09 2.267-.123zm4.453-.204a37.174 37.174 0 0 0 1.915-.117l.459-.057V42.02l-1.916.073a93.97 93.97 0 0 0-2.752.14l-.836.066v6.04l.836-.064a83.46 83.46 0 0 1 2.294-.126zm5.913-.335l.464-.057-.062-2.07c-.035-1.139-.09-2.47-.123-2.96l-.06-.89h-.405c-.223 0-.923.03-1.555.07l-1.15.07V48l1.214-.065c.668-.035 1.423-.09 1.678-.12zm3.168-.244c.074-.07-.274-5.812-.356-5.895-.027-.026-.47-.017-.985.019l-.937.066.052 1.09c.029.6.082 1.95.117 2.999l.065 1.907.987-.06c.543-.032 1.019-.09 1.057-.126zm2.207-.15c.028-.028-.023-1.211-.114-2.629-.09-1.417-.165-2.742-.166-2.943v-.367l-.768.064c-.423.036-.779.08-.791.097-.013.018.062 1.295.167 2.838.104 1.544.193 2.874.197 2.956.006.118.159.138.715.093.39-.031.731-.08.76-.109zm1.315-.063c.112-.07.102-.64-.054-2.993l-.192-2.905-.297-.035c-.187-.021-.32.025-.359.125-.033.087.016 1.358.109 2.825.093 1.466.17 2.758.17 2.87 0 .216.358.281.623.113zm-64.899-5.224c.058-.267.6-4.619.6-4.815 0-.081-.292-.123-.864-.123-.475 0-.863.043-.863.095s-.146 1.132-.324 2.401c-.178 1.269-.323 2.392-.324 2.496 0 .164.113.189.861.189.806 0 .865-.016.914-.243zm3.298.086c0-.086.121-1.232.27-2.546s.25-2.42.226-2.46c-.024-.04-.599-.056-1.277-.038l-1.234.033-.29 2.341c-.159 1.288-.288 2.45-.287 2.584.002.238.026.243 1.297.243 1.06 0 1.295-.029 1.295-.157zm4.469-.302c.031-.252.084-1.138.118-1.97a56.77 56.77 0 0 1 .123-2.185l.063-.674h-1.742c-1.296 0-1.756.034-1.793.134-.044.12-.59 4.793-.59 5.05 0 .062.759.104 1.881.104h1.882l.058-.459zm4.741-1.501c.04-1.078.071-2.268.071-2.644v-.685h-3.857l-.066.837c-.036.46-.094 1.54-.128 2.401-.034.86-.085 1.674-.112 1.808l-.05.243h4.071l.071-1.96zm5.505 1.134c.039-.454.07-1.675.07-2.714V36.95l-1.646.075c-.905.041-1.998.07-2.428.062l-.782-.012v.951c0 .524-.033 1.715-.071 2.647l-.07 1.695 2.428.005 2.43.005.07-.826zm5.948.703c.022-.021.076-1.245.119-2.719l.079-2.68-2.687.077c-1.478.042-2.696.083-2.706.09-.019.014-.06 5.101-.044 5.29.008.09 5.148.033 5.24-.058zm5.67-.056l.677-.07-.07-.982c-.038-.54-.101-1.754-.14-2.698l-.07-1.717-2.539.07c-1.396.038-2.573.106-2.613.151-.041.045-.108 1.26-.148 2.7l-.072 2.617h2.148c1.181 0 2.453-.032 2.826-.071zm6.874-.183c.035-.036-.403-5.167-.456-5.33-.034-.105-.56-.122-2.34-.076-1.264.033-2.455.083-2.648.112l-.35.054-.002.777c0 .878.2 3.987.283 4.383l.054.259 2.717-.077c1.494-.042 2.728-.088 2.742-.102zm5.168-.136l1.088-.06-.392-2.685c-.215-1.477-.416-2.71-.447-2.741-.068-.068-5.07.13-5.144.204-.047.047.209 3.388.375 4.89l.063.568 1.685-.059c.926-.032 2.174-.085 2.772-.117zm6.042-.243l.33-.069-.402-2.68c-.221-1.474-.422-2.7-.447-2.725-.066-.066-4.407.143-4.48.216-.056.057.569 4.835.69 5.266.047.17.22.18 2.015.123 1.08-.035 2.112-.094 2.294-.131zm4.5-.188c.828-.045 1.268-.11 1.269-.19 0-.067-.276-1.305-.616-2.751l-.617-2.63-1.57.069c-.863.038-1.849.096-2.19.13-.565.057-.615.083-.568.295.028.127.199 1.252.38 2.498.181 1.247.355 2.382.385 2.522.056.254.064.255 1.157.19.606-.035 1.672-.095 2.37-.133zm4.478-.215c.43-.034.783-.102.783-.15 0-.05-.243-1.245-.54-2.656s-.54-2.609-.54-2.66c0-.08-3.334 0-3.431.082-.03.024.926 4.22 1.167 5.127l.1.38.84-.03a46.917 46.917 0 0 0 1.621-.093zm3.562-.216c.311-.032.566-.108.566-.167 0-.085-.813-3.765-1.135-5.142-.058-.245-.067-.246-1.323-.174-.696.04-1.281.086-1.3.103-.036.03 1.055 5.34 1.12 5.45.037.064 1.147.027 2.072-.07zm2.522-.151c.43 0 .526-.035.525-.189 0-.104-.307-1.33-.68-2.725l-.68-2.536-.738-.033c-.407-.017-.774.007-.817.054-.063.07.948 4.87 1.14 5.415.037.104.154.128.389.081.184-.037.572-.067.861-.067zm1.571-.189c-.026-.045-.303-1.259-.616-2.698-.546-2.515-.578-2.617-.822-2.617-.14 0-.254.034-.254.076 0 .095 1.157 4.486 1.31 4.97.06.192.182.35.27.35.087 0 .138-.037.112-.081zm-63.13-4.263c.097-.123 2.295-6.037 2.295-6.174 0-.032-.409-.059-.909-.059h-.909l-.113.351c-.062.193-.456 1.54-.875 2.995s-.789 2.73-.82 2.833c-.05.165.023.189.584.189.385 0 .684-.054.747-.135zm2.626.028h1.357l.949-3.029c.521-1.665.93-3.045.909-3.067-.022-.022-.667-.052-1.433-.066l-1.394-.026-1.11 3.013c-.612 1.657-1.114 3.079-1.116 3.16-.003.1.073.127.24.082.133-.035.852-.065 1.598-.066zm6.326-2.861l.736-3.052.06-.246-1.58.03-1.58.03-.8 2.536c-.439 1.395-.868 2.769-.953 3.052l-.156.515 1.8-.03 1.798-.029.675-2.806zm4.191 2.725c.037-.102.808-5.809.808-5.982 0-.019-.792-.035-1.76-.035h-1.76l-.725 2.995c-.398 1.647-.723 3.032-.722 3.076.001.045.927.081 2.056.081 1.546 0 2.067-.033 2.103-.135zm5.772-.058c0-.14.528-5.004.597-5.5l.064-.459h-2.489c-1.369 0-2.489.04-2.489.09s-.17 1.382-.377 2.963-.378 2.901-.378 2.933 1.141.058 2.536.058 2.536-.038 2.536-.085zm6.125-.086c.644-.06.675-.075.675-.351 0-.324.284-4.074.375-4.959l.06-.57-2.97.014c-1.633.008-2.97.047-2.972.085-.002.039-.143 1.357-.314 2.93s-.296 2.884-.277 2.914c.043.07 4.538.018 5.423-.063zm7.549-.193c.011-.01.055-1.323.098-2.917l.077-2.898-2.927.046c-1.61.025-2.957.075-2.992.11-.06.06-.474 4.823-.48 5.524l-.003.311 3.103-.079c1.706-.043 3.112-.087 3.123-.098zm5.07-.16c1.018-.038 1.888-.105 1.931-.149.065-.064-.79-4.71-.996-5.412-.057-.193-.182-.2-2.584-.153-1.389.028-2.542.07-2.564.095s-.068 1.32-.104 2.878l-.066 2.833 1.265-.01c.695-.006 2.098-.043 3.117-.081zm7.03-.3c.945-.051 1.208-.098 1.166-.208-.03-.078-.375-1.25-.767-2.604s-.738-2.548-.77-2.653c-.052-.178-.22-.186-2.45-.126-1.316.036-2.447.082-2.514.102-.082.024.05.896.41 2.716.292 1.474.554 2.747.582 2.828.051.152.653.145 4.343-.055zm4.583-.211c1.506-.062 1.696-.091 1.646-.246a616.56 616.56 0 0 0-.957-2.766l-.9-2.59-1.466.04c-.806.022-1.727.07-2.048.108l-.582.068.808 2.786.808 2.787.494-.059c.272-.032 1.26-.09 2.197-.128zm5.075-.253c.641-.05 1.194-.118 1.229-.153.06-.06-2.186-5.237-2.327-5.365-.074-.067-3.353.072-3.426.145-.025.025.375 1.267.888 2.76l.932 2.714.77-.005a34.87 34.87 0 0 0 1.934-.095zm3.977-.223c.377 0 .631-.046.631-.116 0-.105-1.962-4.902-2.161-5.282-.073-.14-.281-.152-1.405-.085-.725.044-1.336.097-1.357.118s.505 1.267 1.169 2.769l1.208 2.73.641-.067c.353-.037.926-.067 1.274-.067zm2.534-.172c.217-.059.16-.214-1.014-2.724-.685-1.464-1.274-2.692-1.31-2.728-.035-.037-.292-.037-.571 0l-.507.066.697 1.673 1.14 2.725.442 1.052h.446c.246-.002.55-.03.677-.064zM321.8 29.453c.233-.267 2.89-4.201 2.89-4.28 0-.035-.745-.064-1.656-.064h-1.656l-1.312 2.162c-.721 1.189-1.312 2.181-1.312 2.205 0 .09.526.137 1.683.151 1.018.013 1.223-.013 1.363-.174zm6.785-2.073c.47-1.215.854-2.223.854-2.24 0-.017-.873-.031-1.941-.031h-1.941l-1.432 2.13a414.739 414.739 0 0 0-1.519 2.268c-.07.112.416.133 2.519.11l2.605-.03.855-2.207zm6.467 2.235c0-.015.17-.998.378-2.185s.377-2.196.377-2.242-1.271-.07-2.825-.054l-2.825.029-.843 2.159c-.464 1.187-.844 2.194-.845 2.239 0 .044 1.48.08 3.29.08s3.292-.011 3.293-.026zm6.232-.07c.054-.036.207-.988.34-2.116.134-1.127.267-2.135.296-2.239.05-.175-.103-.189-2.14-.188-1.206 0-2.44.03-2.741.067l-.55.066-.348 2.065c-.192 1.135-.374 2.152-.405 2.26-.053.185.085.194 2.698.173 1.514-.013 2.797-.052 2.85-.088zm-22.26-1.812l1.329-2.209.249-.415-.95.003-.951.003-1.295 2.124c-.713 1.168-1.312 2.162-1.331 2.21s.393.084.917.082l.953-.004 1.08-1.794zm29.358 1.734l.543-.065-.186-2.174a226.626 226.626 0 0 1-.192-2.312c-.004-.111-.576-.124-2.892-.067-1.588.04-2.925.105-2.97.146-.069.062-.617 3.967-.618 4.404 0 .105.648.135 2.886.134 1.588 0 3.131-.03 3.43-.066zm6.221-.132c1.168-.04 2.153-.1 2.189-.137.036-.036-.385-1.092-.935-2.347l-1.001-2.282-.864.006c-1.181.008-4.695.174-4.744.224-.03.03.32 4.437.366 4.6.012.045 2.747.01 4.99-.065zm6.439-.227c.968-.051 1.788-.12 1.82-.152.053-.054-2.253-4.443-2.43-4.625-.06-.062-4.756.115-4.849.183-.015.011.39.963.9 2.115s.97 2.205 1.023 2.338c.088.224.163.243.935.238a75.862 75.862 0 0 0 2.6-.097zm4.972-.223c.51-.001.993-.043 1.07-.092.108-.068-.225-.669-1.337-2.42l-1.48-2.329-1.36.063c-.749.034-1.439.091-1.535.127-.143.054.04.462 1.026 2.282.66 1.219 1.242 2.282 1.295 2.361.071.108.261.128.744.077a19.162 19.162 0 0 1 1.577-.07zm3.993-.216c.333-.001.67-.042.748-.092.107-.068-.223-.668-1.34-2.432l-1.482-2.342-1.304.073c-.718.04-1.363.104-1.433.14-.084.045.165.525.734 1.417l1.509 2.362.648 1.013.658-.069c.361-.038.93-.07 1.262-.07zm2.906-.267c.022-.022-.73-1.085-1.67-2.363-1.694-2.302-1.714-2.324-2.115-2.328-.222-.003-.405.021-.405.053 0 .062 2.757 4.429 2.952 4.675.084.106.26.126.657.073.299-.04.56-.089.581-.11zm-49.37-6.13c.824-1.175 1.47-2.165 1.434-2.2-.035-.035-.398-.088-.807-.117l-.742-.053-1.884 2.145c-1.036 1.18-1.922 2.207-1.968 2.283-.067.11.177.132 1.193.108l1.277-.03 1.497-2.136zm2.904 1.515c.26-.371.944-1.367 1.52-2.212l1.047-1.538h-3.098l-1.45 2.069a176.83 176.83 0 0 0-1.535 2.212c-.07.117.205.144 1.478.144h1.565l.473-.675zm6.065-1.545c.755-1.221 1.355-2.236 1.335-2.255s-.943-.009-2.05.023l-2.012.057-1.396 2.062a188.105 188.105 0 0 0-1.475 2.198c-.062.106.382.135 2.074.135h2.152l1.372-2.22zm4.97-.054l1.138-2.273-1.964.034-1.964.034-.77 1.24-1.386 2.24-.617.999h4.426l1.137-2.274zm8.127 2.004c.022-.023-.165-.987-.416-2.143-.353-1.63-.49-2.09-.606-2.046-.082.032-.216.003-.297-.064-.102-.085-.87-.114-2.508-.093l-2.36.029-1.102 2.158c-.605 1.187-1.103 2.203-1.106 2.256-.005.092 8.303-.005 8.395-.097zm6.398-.223c.04-.025-.33-1.005-.82-2.178l-.89-2.132-2.416.038c-1.329.02-2.435.056-2.458.078-.023.022.17 1.02.43 2.216l.473 2.177 2.804-.077c1.543-.043 2.837-.098 2.877-.123zm5.688-.249l.683-.068-1.368-1.996c-.752-1.099-1.423-2.05-1.492-2.115-.13-.124-4.305-.054-4.433.074-.035.035.334 1.024.821 2.197l.885 2.132 2.111-.078c1.161-.043 2.418-.108 2.793-.146zm4.36-.215l1.047-.069-1.512-2.077-1.513-2.078-.938.012c-.516.006-1.367.042-1.89.08l-.951.07 1.426 2.077 1.425 2.078.929-.013c.51-.007 1.4-.043 1.976-.08zm4.105-.23c.282 0 .512-.05.512-.11s-.758-.983-1.685-2.05l-1.686-1.942h-1.186c-1.027 0-1.177.023-1.122.168.036.092.706 1.045 1.49 2.118l1.427 1.952.868-.068c.478-.037 1.1-.068 1.382-.068zm2.502-.202c.317-.068.313-.074-1.438-2.038l-1.755-1.97h-.648c-.357 0-.633.043-.613.096.02.053.803.976 1.74 2.05 1.848 2.118 1.77 2.065 2.714 1.862zM329.84 19.2c.04-.104.402-.713.806-1.353s.735-1.187.735-1.215-.548-.049-1.217-.049h-1.218l-1.417 1.322c-.78.727-1.421 1.359-1.427 1.403-.005.045.818.081 1.829.081 1.651 0 1.845-.02 1.91-.189zm4.4.08l.972-.004.832-1.26c.458-.695.821-1.273.808-1.286-.013-.014-1.068-.035-2.343-.049l-2.319-.025-.828 1.286c-.456.707-.832 1.329-.837 1.383-.005.057.567.068 1.369.027a60.845 60.845 0 0 1 2.347-.073zm-7.655-1.375l1.463-1.376-.492-.033c-.488-.032-.504-.022-2.03 1.286-.846.726-1.584 1.36-1.64 1.41s.198.09.567.09h.67l1.462-1.377zm17.438 1.174c.038-.037.018-.621-.044-1.298l-.112-1.23-1.782.07c-.98.038-2.368.07-3.086.072l-1.305.002-.647.984c-.356.541-.737 1.122-.846 1.291l-.198.307 3.976-.065c2.186-.036 4.006-.096 4.044-.133zm7.256-.19l.741-.064-1.221-1.225-1.222-1.225-1.193.053-2.526.116-1.334.062.07.825c.037.454.096 1.013.13 1.243l.063.417 2.875-.07c1.582-.037 3.21-.097 3.617-.132zm5.221-.147c.49 0 .89-.039.89-.085s-.592-.635-1.316-1.307l-1.317-1.222-1.462.068c-.804.038-1.741.096-2.082.13l-.62.062 1.16 1.239 1.159 1.238 1.349-.061c.742-.034 1.75-.062 2.24-.062zm5.732-.274c.021-.021-.75-.623-1.716-1.339l-1.755-1.3-1.09.069c-.6.037-1.29.098-1.536.134l-.446.065 1.363 1.275 1.364 1.275 1.888-.07c1.04-.04 1.907-.088 1.928-.11zm-23.583-3.723l1.312-1.298-1.992.055-1.992.054-.957.947c-.526.52-1.054 1.08-1.172 1.244l-.216.296h3.705l1.312-1.298zm5.174 1.19h1.508l-.07-.782c-.04-.43-.1-1.042-.136-1.359l-.065-.576-2.01.078-2.01.079-1.295 1.244c-.713.684-1.314 1.292-1.337 1.351-.028.072.631.084 1.933.037 1.086-.04 2.653-.072 3.482-.072zm-10.334-.782c.415-.43.923-.966 1.128-1.19l.373-.408-.807.071c-.481.043-.883.139-.998.238-.105.092-.907.595-1.78 1.119l-1.59.951h1.46l1.46.001.754-.782zm15.89.583l.893-.07-1.146-1.272-1.146-1.272-1.096.03-1.096.031.016.432c.009.237.05.832.09 1.322l.075.89 1.259-.01a38.32 38.32 0 0 0 2.151-.081zm4.773-.238c1.039-.064 2.006-.14 2.148-.17.21-.042-.141-.28-1.809-1.224l-2.068-1.172-1.795.072-1.794.071 1.121 1.26 1.121 1.26.594.01c.326.004 1.443-.044 2.482-.107z" transform="translate(-867.49 -29.016) scale(2.8117)" stroke-linejoin="round" stroke="#fff" stroke-linecap="round" stroke-width=".022" fill="url(#b)"/>
    <g id="eye-fill" fill="url(#eye-white)">
      <ellipse cx="83" cy="55" rx="20" ry="25"  transform="skewX(-10)"/>
      <ellipse cx="109" cy="60" rx="20" ry="27" transform="skewX(8)"/>
    </g>
    <path id="eye-left" transform="translate(-15 -14) scale(.12)" d="M736.51,371.31c19.44-7.75,40.74-9.26,61.47-8.58c19.74,0.89,39.43,4.1,58.28,10.12c16.65,5.44,32.94,13.02,46.24,24.61   c9.75,8.5,17.65,19.6,20.6,32.34c2.25,9.16,1.97,18.84-0.29,27.97c-0.71,3.19-3.42,5.38-6.11,6.92c-5.36,2.95-11.68,4.25-17.75,3.4   c-2.63-0.41-5.91-2.1-5.75-5.19c0.42-5.33,1.92-10.58,1.42-15.97c-0.73-17.21-9.55-33.08-21.23-45.33   c-13.98-14.44-32.19-25.78-52.34-28.6c-40.71-3.76-83.14,2.07-119.45,21.58c-29.59,15.66-54.03,40.01-71.9,68.16   c-22.89,35.89-36.28,77.19-42.83,119.06c-2.89,20.54-4.8,41.44-2.47,62.14c2.61,20.66,12.31,40.08,26.22,55.46   c21.68,23.89,51.89,38.75,83.09,45.71c33.93,7.38,70.29,6.06,102.81-6.63C823.05,728.19,845.84,708.7,860,684   c17.91-30.92,23.07-68.09,18.2-103.2c-0.76-4.11-0.73-8.53-2.73-12.29c-1.3,12.01-7.28,23.39-16.55,31.14   c3.08,0.72,7.25,2.46,6.82,6.33c-0.68,3.93-3.21,7.22-5.26,10.54c-9.09,13.18-21.85,23.5-35.75,31.24   c-15.17,8.28-32.35,13.89-49.8,12.91c-12.26-0.5-24.53-5.61-32.7-14.91c-9.06-10.35-13.53-24.13-14.29-37.71   c-1.06-18.65,5.53-37,15.68-52.43c4.88-7.26,10.18-14.45,17.17-19.84c10.17-8.01,21.83-14.35,34.43-17.5   c6.71-1.4901,14.11-2.03,20.52,0.93c2.43,1.14,5.05,1.72,7.63,2.45c1.17,5.34-1.52,10.33-3.7,15.01   c-4.69,9.41-8.66,19.64-8.48,30.3c0.54,3.5,2.56,7.69,6.45,8.25c4.66,1.1201,9.39,2.14,14.15,2.7c2.69-1.47,4.82-3.98,7.38-5.75   c2.56-6.58,2.57-14.03,5.31-20.6c2.91-5.34,8.74-8.57,14.57-9.66c4.77-0.9,10.71,0.3701,13.15,4.9901   c2.3,4.68,2.97,9.99,3.25,15.15c3.86-6.91,12.01-9.95,19.55-10.24c3.38,0.02,7.47,0.71,9.32,3.9c1.41,3.28,1.66,6.91,2.38,10.39   c5.16,28.9301,3.42,59.29-6.65,87c-9.56,26.71-26.61,50.44-47.81,69.15c-39.19,34.45-91.21,53.43-143.25,54.12   c-32.13,0.15-65.07-7.23-91.99-25.34c-16.44-10.9901-30.21-25.97-39.59-43.39c-9.77-17.77-14.97-37.78-16.89-57.88   c-1.84-21.56-1.39-43.29,0.89-64.8c4.35-41.5,17.6201-82.55,41.59-116.95c20.87-30.25,49.4-54.75,81.28-72.79   C700.94,385.74,718.47,377.81,736.51,371.31 M794.7,637.84c-2.84,1.23-5.98,1.39-8.85,2.5c5.4301,0.69,11.37,0.68,16.37-1.82   C799.76,638.13,797.14,636.69,794.7,637.84z"/>
    <path id="theeth-fill" d="M38 99 l40 -5 l70 18 l-10 25 l-22 0 l-8 3 l-30 0 l-20 -3 l-12 -5 l-5 -8 l-7 0 z" fill="url(#teeth-white)" stroke="none"/>
    <path id="mouth" transform="translate(-16 -20) scale(.12)" d="M487.41,829.37c5.05-3.08,11.41-3.23,16.99-1.63c3.37,1.04,7.27,2.85,8.37,6.5c0.86,3.74-2.36,6.55-5.16,8.37   c-16.81,10.43-34.12,20.15-50.08,31.9c-13.17,9.62-25.6,20.71-34.54,34.48c-12.61,18.82-16.06,42.77-11.54,64.75   c1.1,4.33,6.05,5.82,9.91,6.67c12.15,2.14,24.53,0.53,36.68-0.7599c36.81-4.9901,72.89-14.04,108.92-22.87   c11.63-2.79,23.17-6.14,35.04-7.79c55.03-8.4,110.19-18.11,166.02-18.2c50.04-0.5,99.88,6.95,148.37,18.95   c123.96,31.03,239.61,88.35,363.99,117.9401c60.5599,14.4399,123.63,21.5199,185.65,13.33c4.9199-0.88,10.7-0.11,14.08,3.9399   c2.59,3.12,1.4401,7.42,1.25,11.1001c-4.42,43.8099-20.16,85.95-42.61,123.6499c-19.0601,32.2001-42.77,61.4601-68.8,88.26   c-53.76,54.8101-116.96,99.64-183.5699,137.4601c-34.91,19.76-71.02,37.38-107.95,53.0499c-38.87,17.4-75.4501,39.38-113.34,58.74   c-34.98,17.91-71.3,34.4301-110.14,41.8101c-24.38,4.53-49.8,4.86-73.95-1.1801c-19.89-4.85-38.36-14.25-55.46-25.33   c-30.32-19.9301-56.72-45.4301-79.33-73.7c-24.59-31.01-44.91-65.7101-57.72-103.2401c-10.07-29.62-15.14-61.3899-11.16-92.6   c-19.9-7.64-38.89-17.6899-56.37-29.89c-11.89-8.5599-23.51-18.5-30.17-31.8199c-3.8-7.45-4.77-16.14-2.83-24.26   c-21.4-1.29-42.77-3.46-63.91-7.05c-5.78-0.5699-11.42-3.5299-14.24-8.75c-4.05-7.6899-4.12-16.7-4.16-25.1899   c0.7-22.76,5.14-45.21,10.05-67.38c8.1-35.47,18.39-70.42,30.35-104.77c-15.66,2.09-31.3,4.41-47,6.15   c-5.23,0.52-12.44-1.42-13.44-7.42c-3.2-18.38-4.69-37.27-2.13-55.83c2.38-18.56,9.6-36.47,20.87-51.41   c15.49-20.6,36.61-35.97,57.89-50.09C470.55,839.84,478.91,834.5,487.41,829.37 M647.72,975.36c-11.21,1.08-22.46,2.1-33.6,3.77   c-13.61,5.51-22.23,18.56-28.91,31.04c-11.35,21.8-17.32,45.77-25.17,68.93c-2.46,6.91-5.21,14.3-11.24,18.9301   c-0.77-1.5901-1.56-3.24-1.18-5.02c0.69-8.89,3.45-17.41,5.09-26.13c2.6-13.39,4.42-27.04,3.99-40.71   c-0.6-12.7001-2.82-25.9901-10.41-36.52c-0.87-1.73-2.91-0.73-4.32-0.64c-21.91,3.5-43.86,6.85-65.78,10.33   c-1.32,0.0099-1.82,1.43-2.47,2.34c-6.73,11.9-12.83,24.15-18.33,36.67c-18.44,42.1-31.23,86.99-34.77,132.92   c-0.38,6.86-1.57,14.1799,1.39,20.66c2.82,6.2999,9.52,9.8099,16.08,10.84c12.74,2.1799,25.7-0.51,38.04-3.67   c6.51-1.98,13.74-3.1899,18.7-8.27c13.36-12.75,24.09-27.9099,36-41.95c2.57-3,5.09-6.1801,8.58-8.15   c-0.2599,5.6-2.8799,10.6901-4.8199,15.85c-7.9301,18.9-17.3,37.15-26.62,55.4c-1.85,4.04-5.51,7.41-5.71,12.09   c-0.66,6.91,3.21,13.16,7.27,18.4c8.94,10.92,20.76,18.99,32.68,26.3101c17.35,10.3199,35.7,19.24,55.13,24.85   c5.87,2.55,12.12,4.05,18.28,5.74c21.42,5.5699,43.36,9,65.42,10.73c27.5,1.9301,55.31,1.75,82.56-2.7999   c7.56-1.4801,15.29-2.9601,22.22-6.4701c3.65-1.6799,5.39-5.49,7.16-8.84c7.43-14.54,12.59-30.11,17.24-45.72   c5.98-19.6901,9.35-40.01,14.05-60.02c2.12-8.63,3.97-17.38,7.24-25.67c0.93-2.1499,2.32-5.25,5.22-4.5199   c2.14,1.9399,2.8,4.9199,3.46,7.6299c1.13,6.0601,1.85,12.1901,2.16,18.3501c1.71,30.63,0.9901,61.33,1.9,91.98   c0.3,10.0599,0.51,20.2,2.47,30.1c0.58,2.11,1.04,4.9,3.42,5.73c7.06,2.86,14.57,4.34,21.98,6.03   c22.03,4.45,44.4,7.04,66.81,8.5599c24.13,1.3,48.54,1.9401,72.44-2.23c7.85-1.64,15.9301-3.59,22.63-8.21   c4.8-3.42,7.1801-9.01,10.08-13.9301c10.4701-18.99,19.7301-38.63,28.5801-58.4199c8.1899-18.55,16.0499-37.27,22.51-56.5   c2.59-7.42,3.8999-15.3101,7.6499-22.3c2.17-3.9299,3.9401-8.47,7.8-11.08c1.05,9.48-0.3199,19.02-1.05,28.48   c-2.61,28.87-6.1899,57.71-6.1399,86.74c0.3999,9.6,0.46,19.52,3.97,28.61c1.91,5.13,6.88,9.22,12.5699,8.77   c29.64-1.02,59.4,2.59,88.9401-1.14c2.62-0.2999,4.48-2.39,6.6599-3.6699c4.4601-3.2001,10.02-4.2401,15.39-4.64   c3.4601-0.3501,7.2101,1.5699,10.4-0.52c7.47-2.72,10.72-11.12,18.23-13.8201c4.5801-3.95,7.39-9.58,10.0801-14.9099   c3.61-8.4501,5.99-17.36,8.6599-26.14c7.4801-26.02,13.4701-52.4401,18.9501-78.9401c3.97-20.1,8.22-40.2,11.0599-60.48   c-39.7899-6.02-78.9-15.78-117.59-26.72c-2.88-0.73-5.76-2.02-8.77-1.5c-11.36,1.15-22.01,7.0699-29.2,15.9   c-11.42,13.61-16.26,31.0599-24.47,46.52c-3.3501,5.71-6.88,11.86-12.7001,15.37c-2.28,1.49-5.28,0.24-6.01-2.3101   c-2.03-6.3099-0.85-13.08,0.01-19.49c1.13-8.3199,4.41-16.4,3.66-24.91c-0.78-10.52-5.3301-20.39-11.21-29   c-9.14-13.2999-21.17-24.27-33.7001-34.2999c-2.7-2.0901-5.27-4.5901-8.6899-5.37c-37.4401-10.8901-75.1901-20.65-113.11-29.71   c-47.34-11.15-95.14-20.66-143.47-26.4C751.58,972.07,699.4,970.22,647.72,975.36 M1322.12,1110.73   c2.78-3.75,7.5-4.6699,11.4301-6.72c-3.25-0.75-6.5601-1.05-9.8301-1.58C1323.11,1105.1801,1322.6801,1107.97,1322.12,1110.73    M1392.48,1110.1c2.4-0.41,5.01-0.46,7.0801-1.95C1397.1899,1108.39,1392.79,1106.54,1392.48,1110.1 M1075.86,1297.9   c3.78-0.41,7.67-0.92,11.4501-0.0801c2.7599,0.38,3.1299,3.9601,5.7899,4.54c-3.9199-10.46-5.83-21.49-6.48-32.62   C1082.99,1279.11,1079.73,1288.63,1075.86,1297.9 M1281.96,1282.89c-1.45,3.28-2.6599,6.6799-3.98,10.02   c3.14-3.5601,7.38-6.3301,9.41-10.74C1285.64,1282.5,1283.36,1281.6801,1281.96,1282.89 M1350.99,1290.05   c1.8201-0.8601,3.3-2.25,4.14-4.0901C1352.85,1286.21,1351.7,1288.09,1350.99,1290.05 M811.37,1308.6c-1.24,3.9-3.5,7.49-6.84,9.92   c-6.6,4.9399-14.79,7.1799-22.78,8.65c1.54,1.0499,3.78,1.8999,4.06,4.0299c-0.14,2.8-1.65,5.29-2.64,7.87   c6.89-3.86,14.86-6.24,22.81-5.5399c2.29,0.1899,5.51,1.5699,4.64,4.46c-1.22,3.79-3.34,7.24-4.53,11.0601   c2.75-3.66,4.85-7.75,7.5099-11.4701c2.91-4.2799,8.1801-5.88,12.97-7c5.5-1.1,12.02-1.85,16.56,2.2001   c0.94-0.67,1.9-1.3201,2.86-1.9601c-4.94-0.72-9.79-1.9199-14.63-3.11c-5.06-1.2999-10.28-3.24-13.74-7.34   C814.59,1317.02,813.07,1312.7,811.37,1308.6 M634.27,1320.05c-0.4,0.8199-0.78,1.6699-1.13,2.5399c2.66-0.47,5.35-0.76,8.04-1.14   C638.9,1320.83,636.58,1320.4,634.27,1320.05 M647.58,1322.73c1.32,3.1,0.17,6.24-0.86,9.22c5.1801-3.72,11.42-5.08,17.52-6.45   C658.69,1324.54,653.12,1323.73,647.58,1322.73 M691.32,1329.1801c-0.03,1.12-0.05,2.2599-0.07,3.4199   c2.9-1.21,6.25-1.24,8.94-2.96C697.23,1329.4,694.27,1329.3,691.32,1329.1801 M712.12,1330.4399c0.37,1.16,0.75,2.3301,1.12,3.53   c1.62-1.11,3.29-2.1599,5.01-3.13C716.19,1330.8,714.15,1330.65,712.12,1330.4399 M1029.14,1336.65c1.86,1.27,5.34,2.14,4.64,5.13   c-1.61,5.99-4.74,11.45-6.67,17.34c5.39-8.4301,10.16-17.29,15.23-25.9301C1037.98,1334.5,1033.51,1335.38,1029.14,1336.65    M868.95,1334.76c-2.71,5.99-5.12,12.11-7.9,18.0599c4.76-5.96,12.7-7.99,20-8.37c3.41-0.23,6.9,0.87,9.19,3.5   c2.08-3.34,4.35-6.5599,6.25-10C887.28,1337.1,878.12,1335.89,868.95,1334.76 M1008.29,1339.33c0.03,0.4601,0.07,1.37,0.1,1.8201   c1.89-0.59,3.78-1.22,5.69-1.8C1012.14,1339.34,1010.21,1339.35,1008.29,1339.33 M1294.22,1338.79   c-2.76,3.95-6.03,7.49-8.9399,11.33c4.47-3.39,8.9099-6.87,12.88-10.84C1296.83,1339.1,1295.52,1338.9399,1294.22,1338.79    M923.31,1340.25c-0.42,0.95-0.81,1.9301-1.16,2.9399c1.78-0.85,3.56-1.75,5.16-2.9099   C925.97,1340.23,924.63,1340.22,923.31,1340.25 M947.31,1341.27c-0.03,1.5,0.34,3.0699-0.15,4.5599   c-4.24,10.0801-10.3199,19.3501-14.3,29.53c5.96-8.41,9.78-18.26,15.99-26.52c6.17-5.4,15.12-6.6799,23.02-5.5399   c2.95,0.24,4.31,2.99,5.06,5.51c1.99-2.8501,4.22-5.5601,7.09-7.5701C971.79,1341.83,959.53,1341.75,947.31,1341.27    M1236.4399,1382.5601c-2.2799,2.3999-4.37,5-6.3899,7.6299c3.6399-2.0099,7.1399-4.3099,10.24-7.09   C1239.01,1382.9301,1237.7,1382.12,1236.4399,1382.5601 M1192.0699,1406.9301c-2.95,4.4399-6.0699,8.7699-8.98,13.24   c6.5601-3.6901,12.99-7.64,19.23-11.86C1198.85,1408.3,1195.36,1408.1,1192.0699,1406.9301 M1141.78,1443.95   c2.25-1.09,4.4199-2.35,6.5599-3.6399c-1.2-0.67-2.38-1.3201-3.5499-1.9701C1143.75,1440.1801,1142.7,1442.03,1141.78,1443.95    M1104.49,1461.42c-1.0699,0.5599-2.3199,2.01-1.92,3.2799C1104.2,1465.34,1106.61,1462.0601,1104.49,1461.42 M670.03,1475.37   c2.43,2.6,4.99,5.08,7.49,7.64c0.25-3.34,1.02-6.6,1.78-9.83C676.25,1474.09,673.15,1474.8101,670.03,1475.37 M1065.9301,1482.28   c3.9399-1.5,7.72-3.35,11.49-5.22c-2.41-0.14-4.67-0.9701-6.7201-2.1801C1069.11,1477.34,1067.45,1479.76,1065.9301,1482.28    M681,1486.35c3.31,3,6.55,6.09,10.02,8.9301c1.05-3.0801,2.05-6.16,3.05-9.24C689.77,1486.9,685.31,1487.45,681,1486.35    M1041.08,1487.9399c-2.2,2.01-3,5.1901-4.33,7.8201c7.09-3.17,14.16-6.37,21.21-9.62   C1052.41,1487.4,1046.8,1488.61,1041.08,1487.9399 M1003.34,1507.25c-1.15,0.0699-2.13,2.45-0.4901,2.52   C1004.07,1509.73,1004.97,1507.29,1003.34,1507.25 M712.31,1508.34c-1.18-0.1799-2.71,1.17-1.75,2.3401   C711.98,1512.36,714.54,1508.92,712.31,1508.34 M723.8,1518.79c4.19,3.2899,9.16,5.48,14.02,7.61c1.01-5.2001,2.44-10.3,3.57-15.47   C736.41,1515.1899,730.15,1517.49,723.8,1518.79 M763.99,1529.98c-2.57,2.01-5.7,3.11-8.5,4.77   c8.64,3.42,17.47,6.4399,26.53,8.5601c0.46-1.92,0.94-3.8401,1.43-5.7301c-5.1,0.4301-12.34,2.86-15.84-2.22   c-1.11-4.5,1.55-8.99,2.18-13.4399C767.76,1524.53,766.37,1527.64,763.99,1529.98 M905.18,1538.28 C905.8,1538.88,905.8,1538.88,905.18,1538.28 M839.31,1544.3101c-1.82,2-4.37,3.12-6.53,4.6899c3.23,0.13,6.47-0.16,9.71-0.37 c0.05-3.33,0.44-6.63,1.03-9.88C841.9,1540.4301,840.77,1542.5,839.31,1544.3101 M808.98,1548.6c0.65,0,1.94,0.01,2.59,0.01 c-0.03-0.67-0.08-2.01-0.11-2.6799C810.25,1546.41,809.45,1547.39,808.98,1548.6z"/>
    <path d="M339.05 33.253l-6.021 1.507c-6.116 1.425-6.163 1.487-5.41 7.9l.612 6.395-1.591-6.082c-1.526-6.29-1.53-6.292-7.934-5.426l-6.342.656 6.304-1.54c6.023-1.408 6.065-1.654 5.489-7.914l-.814-6.376 1.562 6.2c1.428 5.758 1.447 5.884 7.887 5.26l6.258-.58z" transform="translate(-867.49 -29.016) scale(2.8117)" color="#000" filter="url(#c)" fill="#fff"/>
    <path d="M366.77 60.775l-3.172.794c-3.222.75-3.247.783-2.85 4.162l.322 3.37-.838-3.205c-.804-3.314-.806-3.315-4.18-2.859l-3.341.346 3.32-.811c3.174-.742 3.196-.872 2.893-4.17l-.43-3.359.824 3.266c.752 3.034.762 3.1 4.155 2.771l3.297-.305z" transform="translate(-867.49 -29.016) scale(2.8117)" color="#000" filter="url(#d)" fill="#fff"/>
    <path d="M726.67 245.36c-2.913 4.369-47.058 26.196-52.298 25.858-5.24-.338-46.216-27.655-48.543-32.362-2.327-4.707.842-53.851 3.755-58.22 2.912-4.369 47.058-26.196 52.298-25.858 5.24.338 46.216 27.655 48.543 32.362 2.327 4.707-.842 53.851-3.755 58.22z" transform="rotate(-4.951 446.83 2594.7) scale(.46897)" opacity=".348" filter="url(#e)" fill="#fff"/>
    <path d="M685.85 211.06l-27.709 5.129-18.296-21.433 9.413-26.561 27.71-5.129 18.295 21.433z" transform="rotate(4.859 -113.818 -2381.953) scale(.46899)" opacity=".298" filter="url(#f)" fill="#fff"/>
    <path transform="matrix(.31356 .02667 -.02667 .31356 -138.03 55.15)" d="M685.85 211.06l-27.709 5.129-18.296-21.433 9.413-26.561 27.71-5.129 18.295 21.433z" opacity=".348" filter="url(#g)" fill="#fff"/>
    <path d="M658.14 233.54c0 28.582-22.585 51.752-50.445 51.752s-50.445-23.17-50.445-51.752 22.585-51.752 50.445-51.752 50.445 23.17 50.445 51.752z" transform="matrix(.469 0 0 .469 -219.09 23.085)" opacity=".348" filter="url(#h)" fill="#fff"/>
  </g>

  <g transform="translate(-40 -40) scale(.3)">
    <path d="M862.28,184.16c3.4-2.02,8.06-3.36,11.64-1.04c4.58,3.83,4.98,10.41,4.8,15.95c-0.77,14.45-7.91,29.61-21.15,36.52   c-32.44,16.64-59.45,41.57-87.03,64.99c-17.02,14.83-35.09,28.4-53.56,41.37c-15.7,10.87-32.32,20.99-50.76,26.44   c-12.74,3.91-26.39,4.59-39.49,2.15c2.49-1.07,5.18-1.52,7.83-2.04c35.5-7.21,68.07-26.94,91.62-54.36   c5.66-6.45,10.74-13.37,15.53-20.48c8.87-12.86,19.53-24.37,30.38-35.57c15.05-15.32,30.89-29.86,47.44-43.54   C833.08,203.51,846.93,192.63,862.28,184.16z"/>
    <path d="M1073.99,229.99c5.97-5.1,13.3-10.86,21.66-9.6c25.66,7.82,48.78,22.52,68.6799,40.3c28.01,25.16,50.39,55.8,70.61,87.37   c27.3201,42.62,50.3401,87.8,77.42,130.56c2.4401,4.13,5.86,7.87,6.79,12.71c-4.28-0.93-7.24-4.36-10.24-7.26   c-5.98-5.89-10.1901-13.2-14.8201-20.11c-21.6899-32.45-44.86-64-70.89-93.12c-24.8899-27.89-52.47-53.63-83.6-74.47   c-22.23-14.87-46.35-27.09-71.91-35.1c-4.11-1.1-7.84-4.7-7.23-9.26C1061.42,243.11,1067.74,235.93,1073.99,229.99z"/>
    <path d="M1084.37,406.46c14.83-2.77,31.05,1.67,41.6801,12.52c2.13,2.62-0.49,5.83-2.67,7.39c-5.33,3.73-11.92,5.8-18.42,5.77   c-5.99,0.18-9.5699-5.44-14.9099-7.12c-12.4801-4.53-26.15-0.33-37.4,5.64c-22.5,12.22-40.25,31.77-53.73,53.28   c-13.82,21.97-21.19,47.35-25.06,72.84c-4.72,32.58-4.4,66.0099,1.87,98.36c7.97,40.56,22.98,79.71,43.78,115.41   c16.95,28.54,38.03,55.32,65.23,74.76c18.46,13.21,40.3201,22.36,63.17,23.4c21.75,1.35,43.64-4.53,62.38-15.5   c27.8999-16.12,49-42.19,62.95-70.92c18.89-39.46,25.52-83.87,24.64-127.33c-1.17-41.92-9.9-84.2-29.38-121.57   c-9.75-18.57-22.39-35.79-38.1899-49.67c-12.63-11.12-27.26-20.01-43.0801-25.8c-2.76-1.01-5.6-1.82-8.26-3.09   c0.1-0.36,0.28-1.08,0.38-1.45c7.29-2.35,15.1-2.2,22.6901-2.64c7.62-0.17,15.3099-0.02,22.84,1.26c4.58,0.63,7.97,3.96,11.54,6.58   c28.22,21.94,49.0699,52.22,63.1,84.86c19.39,45.43,26.85,95.41,24.96,144.6c-1.75,40.93-10,81.95-27.16,119.29   c-13.95,30.12-34.45,58.3-62.99,76.04c-18.88,11.81-41.0599,18.15-63.3199,18.32c-23.39,0.34-46.46-5.71-67.88-14.79   c-15.73-6.78-31.05-14.85-44.5-25.54c-26.25-20.72-46.72-47.89-63.18-76.8c-20.39-36.26-34.57-75.95-42.31-116.8   c-5.69-30.94-7.58-62.75-3.66-94.02c3.78-29.89,13.42-59.52,31.11-84.15c15.61-21.66,33.72-41.68,54.6199-58.37   C1049.72,419.91,1065.98,409.73,1084.37,406.46z"/>
    <path d="M1044.59,597.6c9.86-6.12,21.5901-10.53,33.36-8.6c2.0801,0.44,4.7301,0.83,5.77,2.99c-0.01,2.82-2.48,4.8-4.0599,6.89   c5.45,3.4,8.2,9.76,8.1,16.05c0.7,10.43-2.4,21.2,0.9,31.36c6.38-5.94,9.88-14.41,16.99-19.62c6.59-5.01,15.03-8.12,23.37-6.66   c9.22,1.34,16.51,8.63,20.0699,16.93c6.92,16.25,4.39,35-2.23,50.91c-6.49,15.9301-19.49,28.72-34.85,36.1801   c-17.83,8.8-39.6901,9.22-57.6901,0.65c-14.6699-6.79-26.37-19.17-33.39-33.63c-9.18-18.64-12.65-41.21-4.92-60.96   C1021.33,616.29,1032.29,605.42,1044.59,597.6 M1050.95,615.26c1.4701-1.22,5.74-1.39,4.6901-3.95   C1053.03,609.23,1052.1,613.66,1050.95,615.26 M1119.25,643.09c-1.33,0.73-1.35,1.41-0.0601,2.02   C1120.53,644.37,1120.55,643.69,1119.25,643.09z"/>
    <path d="M633.37,1547.51c4.23-0.62,9.46-1.08,12.52,2.58c12.17,13.3301,17.46,31.16,21.63,48.3301   c5.18,20.72,8.41,42.64,20.09,60.97c7.69,12.42,20.36,20.63,33.34,26.7c22.71,10.5601,48.47,12.49,73.12,10.0601   c35.68-3.6,69.9-15.23,103.23-27.92c6.75-2.34,13.32-6.23,20.71-5.6899c3.42,0.23,7.44,0.88,9.57,3.8999   c1.24,3.4301-2.79,5.53-5.26,6.88c-8.77,3.77-17.81,6.91-26.74,10.26c-41.02,14.8201-83.73,26.8501-127.59,27.9301   c-16.17,0.41-32.4-0.87-48.26-4.04c-15.22-2.83-30.45-8.52-41.83-19.34c-11.4901-10.5601-18.41-25.02-23.31-39.6   c-6.75-19.89-10.54-40.75-18.94-60.0701c-4.1801-9.5699-9.46-18.77-16.59-26.46c-1.33-1.58-3.57-3.59-2.08-5.78   C620.6,1550.86,627.37,1548.84,633.37,1547.51z"/>
  </g>
</svg>
